# MagicaVoxel @ Ephtracy

# group
o 

# material
mtllib buildingchunk1.mtl
usemtl palette

# normals
vn -1 0 0
vn 1 0 0
vn 0 0 1
vn 0 0 -1
vn 0 -1 0
vn 0 1 0

# texcoords
vt 0.154297 0.5
vt 0.337891 0.5
vt 0.982422 0.5

# verts
v -1.1 0 0.9
v -1.1 0 0.7
v -1.1 0.1 0.9
v -1.1 0.1 0.7
v -1 0 1
v -1 0 0.9
v -1 0.1 0.9
v -1 0.1 0.8
v -1 0.1 0.7
v -1 0.2 1
v -1 0.2 0.9
v -1 0.2 0.8
v -1 0.2 0.7
v -1 0.3 1
v -1 0.3 0.9
v -0.9 0 1
v -0.9 0 0.7
v -0.9 0.1 0.9
v -0.9 0.1 0.8
v -0.9 0.2 1
v -0.9 0.2 0.9
v -0.9 0.2 0.8
v -0.9 0.2 0.7
v -0.9 0.3 1
v -0.9 0.3 0.9
v -1 0 1
v -1 0.2 1
v -1 0.3 1
v -0.9 0 1
v -0.9 0.2 1
v -0.9 0.3 1
v -1.1 0 0.9
v -1.1 0.1 0.9
v -1 0 0.9
v -1 0.1 0.9
v -1 0.1 0.8
v -1 0.2 0.8
v -0.9 0.1 0.8
v -0.9 0.2 0.8
v -1 0.1 0.9
v -1 0.2 0.9
v -1 0.3 0.9
v -0.9 0.1 0.9
v -0.9 0.2 0.9
v -0.9 0.3 0.9
v -1.1 0 0.7
v -1.1 0.1 0.7
v -1 0 0.7
v -1 0.1 0.7
v -1 0.2 0.7
v -0.9 0 0.7
v -0.9 0.2 0.7
v -1 0 1
v -0.9 0 1
v -1.1 0 0.9
v -1 0 0.9
v -1.1 0 0.7
v -1 0 0.7
v -0.9 0 0.7
v -1.1 0.1 0.9
v -1 0.1 0.9
v -0.9 0.1 0.9
v -1 0.1 0.8
v -0.9 0.1 0.8
v -1.1 0.1 0.7
v -1 0.1 0.7
v -1 0.2 0.8
v -0.9 0.2 0.8
v -1 0.2 0.7
v -0.9 0.2 0.7
v -1 0.3 1
v -0.9 0.3 1
v -1 0.3 0.9
v -0.9 0.3 0.9

# faces
f 3/1/1 2/1/1 1/1/1
f 4/1/1 2/1/1 3/1/1
f 7/3/1 6/3/1 5/3/1
f 10/3/1 7/3/1 5/3/1
f 11/3/1 7/3/1 10/3/1
f 12/3/1 9/3/1 8/3/1
f 13/3/1 9/3/1 12/3/1
f 14/2/1 11/2/1 10/2/1
f 15/2/1 11/2/1 14/2/1
f 16/3/2 17/3/2 18/3/2
f 18/3/2 17/3/2 19/3/2
f 16/3/2 18/3/2 20/3/2
f 20/3/2 18/3/2 21/3/2
f 19/3/2 17/3/2 22/3/2
f 22/3/2 17/3/2 23/3/2
f 20/2/2 21/2/2 24/2/2
f 24/2/2 21/2/2 25/2/2
f 29/3/3 27/3/3 26/3/3
f 30/2/3 28/2/3 27/2/3
f 30/3/3 27/3/3 29/3/3
f 31/2/3 28/2/3 30/2/3
f 34/1/3 33/1/3 32/1/3
f 35/1/3 33/1/3 34/1/3
f 38/3/3 37/3/3 36/3/3
f 39/3/3 37/3/3 38/3/3
f 40/3/4 41/3/4 43/3/4
f 41/2/4 42/2/4 44/2/4
f 43/3/4 41/3/4 44/3/4
f 44/2/4 42/2/4 45/2/4
f 46/1/4 47/1/4 48/1/4
f 48/1/4 47/1/4 49/1/4
f 48/3/4 49/3/4 51/3/4
f 49/3/4 50/3/4 51/3/4
f 51/3/4 50/3/4 52/3/4
f 56/3/5 54/3/5 53/3/5
f 57/1/5 56/1/5 55/1/5
f 58/3/5 54/3/5 56/3/5
f 58/1/5 56/1/5 57/1/5
f 59/3/5 54/3/5 58/3/5
f 60/1/6 61/1/6 63/1/6
f 61/3/6 62/3/6 63/3/6
f 63/3/6 62/3/6 64/3/6
f 60/1/6 63/1/6 65/1/6
f 65/1/6 63/1/6 66/1/6
f 67/3/6 68/3/6 69/3/6
f 69/3/6 68/3/6 70/3/6
f 71/2/6 72/2/6 73/2/6
f 73/2/6 72/2/6 74/2/6
