# MagicaVoxel @ Ephtracy

# group
o 

# material
mtllib Elevator.mtl
usemtl palette

# normals
vn -1 0 0
vn 1 0 0
vn 0 0 1
vn 0 0 -1
vn 0 -1 0
vn 0 1 0

# texcoords
vt 0.0175781 0.5
vt 0.0214844 0.5
vt 0.0253906 0.5
vt 0.0292969 0.5

# verts
v -1.4 0 2.3
v -1.4 0 2.2
v -1.4 0 2.1
v -1.4 0 2
v -1.4 0 1.9
v -1.4 0 1.8
v -1.4 0 1.7
v -1.4 0 1.6
v -1.4 0 1.5
v -1.4 0.1 2.3
v -1.4 0.1 2.2
v -1.4 0.1 2.1
v -1.4 0.1 2
v -1.4 0.1 1.9
v -1.4 0.1 1.8
v -1.4 0.1 1.7
v -1.4 0.1 1.6
v -1.4 0.1 1.5
v -1.4 0.2 2.3
v -1.4 0.2 2.2
v -1.4 0.2 2.1
v -1.4 0.2 2
v -1.4 0.2 1.9
v -1.4 0.2 1.8
v -1.4 0.2 1.7
v -1.4 0.2 1.6
v -1.4 0.2 1.5
v -1.4 0.3 2.2
v -1.4 0.3 2.1
v -1.4 0.3 2
v -1.4 0.3 1.9
v -1.4 0.3 1.8
v -1.4 0.3 1.7
v -1.4 0.3 1.6
v -1.4 0.3 1.5
v -1.3 0 2.1
v -1.3 0 2
v -1.3 0 1.9
v -1.3 0 1.8
v -1.3 0 1.7
v -1.3 0 1.6
v -1.3 0.1 2.1
v -1.3 0.1 2
v -1.3 0.1 1.9
v -1.3 0.1 1.8
v -1.3 0.1 1.7
v -1.3 0.1 1.6
v -1.3 0.2 2.1
v -1.3 0.2 2
v -1.3 0.2 1.9
v -1.3 0.2 1.8
v -1.3 0.2 1.7
v -1.3 0.2 1.6
v -1.3 0.3 2.1
v -1.3 0.3 2
v -1.3 0.3 1.9
v -1.3 0.3 1.8
v -1.3 0.3 1.7
v -1.3 0.3 1.6
v -1.2 0 2.3
v -1.2 0 2.2
v -1.2 0.1 2.3
v -1.2 0.1 2.2
v -1.2 0.2 2.3
v -1.2 0.2 2.2
v -0.9 0 2.2
v -0.9 0 2.1
v -0.9 0 1.6
v -0.9 0 1.5
v -0.9 0.1 2.2
v -0.9 0.1 2.1
v -0.9 0.1 1.6
v -0.9 0.1 1.5
v -0.9 0.2 2.2
v -0.9 0.2 2.1
v -0.9 0.2 1.6
v -0.9 0.2 1.5
v -0.9 0.3 2.2
v -0.9 0.3 2.1
v -0.9 0.3 1.6
v -0.9 0.3 1.5
v -1.4 0 2.3
v -1.4 0.1 2.3
v -1.4 0.2 2.3
v -1.2 0 2.3
v -1.2 0.1 2.3
v -1.2 0.2 2.3
v -1.4 0.2 2.2
v -1.4 0.3 2.2
v -1.3 0.2 2.2
v -1.3 0.3 2.2
v -1.2 0 2.2
v -1.2 0.1 2.2
v -1.2 0.2 2.2
v -1.2 0.3 2.2
v -1.1 0 2.2
v -1.1 0.1 2.2
v -1.1 0.2 2.2
v -1.1 0.3 2.2
v -1 0 2.2
v -1 0.1 2.2
v -1 0.2 2.2
v -1 0.3 2.2
v -0.9 0 2.2
v -0.9 0.1 2.2
v -0.9 0.2 2.2
v -0.9 0.3 2.2
v -1.3 0 1.6
v -1.3 0.1 1.6
v -1.3 0.2 1.6
v -1.3 0.3 1.6
v -1.2 0 1.6
v -1.2 0.1 1.6
v -1.2 0.2 1.6
v -1.2 0.3 1.6
v -1.1 0 1.6
v -1.1 0.1 1.6
v -1.1 0.2 1.6
v -1.1 0.3 1.6
v -1 0 1.6
v -1 0.1 1.6
v -1 0.2 1.6
v -1 0.3 1.6
v -0.9 0 1.6
v -0.9 0.1 1.6
v -0.9 0.2 1.6
v -0.9 0.3 1.6
v -1.3 0 2.1
v -1.3 0.1 2.1
v -1.3 0.2 2.1
v -1.3 0.3 2.1
v -1.2 0 2.1
v -1.2 0.1 2.1
v -1.2 0.2 2.1
v -1.2 0.3 2.1
v -1.1 0 2.1
v -1.1 0.1 2.1
v -1.1 0.2 2.1
v -1.1 0.3 2.1
v -1 0 2.1
v -1 0.1 2.1
v -1 0.2 2.1
v -1 0.3 2.1
v -0.9 0 2.1
v -0.9 0.1 2.1
v -0.9 0.2 2.1
v -0.9 0.3 2.1
v -1.4 0 1.5
v -1.4 0.1 1.5
v -1.4 0.2 1.5
v -1.4 0.3 1.5
v -1.3 0 1.5
v -1.3 0.1 1.5
v -1.3 0.2 1.5
v -1.3 0.3 1.5
v -1.2 0 1.5
v -1.2 0.1 1.5
v -1.2 0.2 1.5
v -1.2 0.3 1.5
v -1.1 0 1.5
v -1.1 0.1 1.5
v -1.1 0.2 1.5
v -1.1 0.3 1.5
v -1 0 1.5
v -1 0.1 1.5
v -1 0.2 1.5
v -1 0.3 1.5
v -0.9 0 1.5
v -0.9 0.1 1.5
v -0.9 0.2 1.5
v -0.9 0.3 1.5
v -1.4 0 2.3
v -1.2 0 2.3
v -1.4 0 2.2
v -1.3 0 2.2
v -1.2 0 2.2
v -1.1 0 2.2
v -1 0 2.2
v -0.9 0 2.2
v -1.4 0 2.1
v -1.3 0 2.1
v -1.2 0 2.1
v -1.1 0 2.1
v -1 0 2.1
v -0.9 0 2.1
v -1.4 0 2
v -1.3 0 2
v -1.4 0 1.9
v -1.3 0 1.9
v -1.4 0 1.8
v -1.3 0 1.8
v -1.4 0 1.7
v -1.3 0 1.7
v -1.4 0 1.6
v -1.3 0 1.6
v -1.2 0 1.6
v -1.1 0 1.6
v -1 0 1.6
v -0.9 0 1.6
v -1.4 0 1.5
v -1.3 0 1.5
v -1.2 0 1.5
v -1.1 0 1.5
v -1 0 1.5
v -0.9 0 1.5
v -1.4 0.2 2.3
v -1.2 0.2 2.3
v -1.4 0.2 2.2
v -1.3 0.2 2.2
v -1.2 0.2 2.2
v -1.4 0.3 2.2
v -1.3 0.3 2.2
v -1.2 0.3 2.2
v -1.1 0.3 2.2
v -1 0.3 2.2
v -0.9 0.3 2.2
v -1.4 0.3 2.1
v -1.3 0.3 2.1
v -1.2 0.3 2.1
v -1.1 0.3 2.1
v -1 0.3 2.1
v -0.9 0.3 2.1
v -1.4 0.3 2
v -1.3 0.3 2
v -1.4 0.3 1.9
v -1.3 0.3 1.9
v -1.4 0.3 1.8
v -1.3 0.3 1.8
v -1.4 0.3 1.7
v -1.3 0.3 1.7
v -1.4 0.3 1.6
v -1.3 0.3 1.6
v -1.2 0.3 1.6
v -1.1 0.3 1.6
v -1 0.3 1.6
v -0.9 0.3 1.6
v -1.4 0.3 1.5
v -1.3 0.3 1.5
v -1.2 0.3 1.5
v -1.1 0.3 1.5
v -1 0.3 1.5
v -0.9 0.3 1.5

# faces
f 10/2/1 2/2/1 1/2/1
f 11/3/1 3/3/1 2/3/1
f 11/2/1 2/2/1 10/2/1
f 12/4/1 4/4/1 3/4/1
f 12/3/1 3/3/1 11/3/1
f 13/3/1 5/3/1 4/3/1
f 13/4/1 4/4/1 12/4/1
f 14/2/1 6/2/1 5/2/1
f 14/3/1 5/3/1 13/3/1
f 15/3/1 7/3/1 6/3/1
f 15/2/1 6/2/1 14/2/1
f 16/4/1 8/4/1 7/4/1
f 16/3/1 7/3/1 15/3/1
f 17/3/1 9/3/1 8/3/1
f 17/4/1 8/4/1 16/4/1
f 18/3/1 9/3/1 17/3/1
f 19/1/1 11/1/1 10/1/1
f 20/4/1 12/4/1 11/4/1
f 20/1/1 11/1/1 19/1/1
f 21/3/1 13/3/1 12/3/1
f 21/4/1 12/4/1 20/4/1
f 22/4/1 14/4/1 13/4/1
f 22/3/1 13/3/1 21/3/1
f 23/2/1 15/2/1 14/2/1
f 23/4/1 14/4/1 22/4/1
f 24/4/1 16/4/1 15/4/1
f 24/2/1 15/2/1 23/2/1
f 25/3/1 17/3/1 16/3/1
f 25/4/1 16/4/1 24/4/1
f 26/4/1 18/4/1 17/4/1
f 26/3/1 17/3/1 25/3/1
f 27/4/1 18/4/1 26/4/1
f 28/3/1 21/3/1 20/3/1
f 29/4/1 22/4/1 21/4/1
f 29/3/1 21/3/1 28/3/1
f 30/3/1 23/3/1 22/3/1
f 30/4/1 22/4/1 29/4/1
f 31/2/1 24/2/1 23/2/1
f 31/3/1 23/3/1 30/3/1
f 32/3/1 25/3/1 24/3/1
f 32/2/1 24/2/1 31/2/1
f 33/4/1 26/4/1 25/4/1
f 33/3/1 25/3/1 32/3/1
f 34/3/1 27/3/1 26/3/1
f 34/4/1 26/4/1 33/4/1
f 35/3/1 27/3/1 34/3/1
f 36/4/2 37/4/2 42/4/2
f 37/3/2 38/3/2 43/3/2
f 42/4/2 37/4/2 43/4/2
f 38/2/2 39/2/2 44/2/2
f 43/3/2 38/3/2 44/3/2
f 39/3/2 40/3/2 45/3/2
f 44/2/2 39/2/2 45/2/2
f 40/4/2 41/4/2 46/4/2
f 45/3/2 40/3/2 46/3/2
f 46/4/2 41/4/2 47/4/2
f 42/3/2 43/3/2 48/3/2
f 43/4/2 44/4/2 49/4/2
f 48/3/2 43/3/2 49/3/2
f 44/2/2 45/2/2 50/2/2
f 49/4/2 44/4/2 50/4/2
f 45/4/2 46/4/2 51/4/2
f 50/2/2 45/2/2 51/2/2
f 46/3/2 47/3/2 52/3/2
f 51/4/2 46/4/2 52/4/2
f 52/3/2 47/3/2 53/3/2
f 48/4/2 49/4/2 54/4/2
f 49/3/2 50/3/2 55/3/2
f 54/4/2 49/4/2 55/4/2
f 50/2/2 51/2/2 56/2/2
f 55/3/2 50/3/2 56/3/2
f 51/3/2 52/3/2 57/3/2
f 56/2/2 51/2/2 57/2/2
f 52/4/2 53/4/2 58/4/2
f 57/3/2 52/3/2 58/3/2
f 58/4/2 53/4/2 59/4/2
f 60/2/2 61/2/2 62/2/2
f 62/2/2 61/2/2 63/2/2
f 62/1/2 63/1/2 64/1/2
f 64/1/2 63/1/2 65/1/2
f 66/3/2 67/3/2 70/3/2
f 70/3/2 67/3/2 71/3/2
f 68/3/2 69/3/2 72/3/2
f 72/3/2 69/3/2 73/3/2
f 70/4/2 71/4/2 74/4/2
f 74/4/2 71/4/2 75/4/2
f 72/4/2 73/4/2 76/4/2
f 76/4/2 73/4/2 77/4/2
f 74/3/2 75/3/2 78/3/2
f 78/3/2 75/3/2 79/3/2
f 76/3/2 77/3/2 80/3/2
f 80/3/2 77/3/2 81/3/2
f 85/2/3 83/2/3 82/2/3
f 86/1/3 84/1/3 83/1/3
f 86/2/3 83/2/3 85/2/3
f 87/1/3 84/1/3 86/1/3
f 90/3/3 89/3/3 88/3/3
f 91/3/3 89/3/3 90/3/3
f 94/4/3 91/4/3 90/4/3
f 95/4/3 91/4/3 94/4/3
f 96/3/3 93/3/3 92/3/3
f 97/4/3 94/4/3 93/4/3
f 97/3/3 93/3/3 96/3/3
f 98/3/3 95/3/3 94/3/3
f 98/4/3 94/4/3 97/4/3
f 99/3/3 95/3/3 98/3/3
f 100/4/3 97/4/3 96/4/3
f 101/3/3 98/3/3 97/3/3
f 101/4/3 97/4/3 100/4/3
f 102/4/3 99/4/3 98/4/3
f 102/3/3 98/3/3 101/3/3
f 103/4/3 99/4/3 102/4/3
f 104/3/3 101/3/3 100/3/3
f 105/4/3 102/4/3 101/4/3
f 105/3/3 101/3/3 104/3/3
f 106/3/3 103/3/3 102/3/3
f 106/4/3 102/4/3 105/4/3
f 107/3/3 103/3/3 106/3/3
f 112/4/3 109/4/3 108/4/3
f 113/3/3 110/3/3 109/3/3
f 113/4/3 109/4/3 112/4/3
f 114/4/3 111/4/3 110/4/3
f 114/3/3 110/3/3 113/3/3
f 115/4/3 111/4/3 114/4/3
f 116/3/3 113/3/3 112/3/3
f 117/4/3 114/4/3 113/4/3
f 117/3/3 113/3/3 116/3/3
f 118/3/3 115/3/3 114/3/3
f 118/4/3 114/4/3 117/4/3
f 119/3/3 115/3/3 118/3/3
f 120/4/3 117/4/3 116/4/3
f 121/3/3 118/3/3 117/3/3
f 121/4/3 117/4/3 120/4/3
f 122/4/3 119/4/3 118/4/3
f 122/3/3 118/3/3 121/3/3
f 123/4/3 119/4/3 122/4/3
f 124/3/3 121/3/3 120/3/3
f 125/4/3 122/4/3 121/4/3
f 125/3/3 121/3/3 124/3/3
f 126/3/3 123/3/3 122/3/3
f 126/4/3 122/4/3 125/4/3
f 127/3/3 123/3/3 126/3/3
f 128/4/4 129/4/4 132/4/4
f 129/3/4 130/3/4 133/3/4
f 132/4/4 129/4/4 133/4/4
f 130/4/4 131/4/4 134/4/4
f 133/3/4 130/3/4 134/3/4
f 134/4/4 131/4/4 135/4/4
f 132/3/4 133/3/4 136/3/4
f 133/4/4 134/4/4 137/4/4
f 136/3/4 133/3/4 137/3/4
f 134/3/4 135/3/4 138/3/4
f 137/4/4 134/4/4 138/4/4
f 138/3/4 135/3/4 139/3/4
f 136/4/4 137/4/4 140/4/4
f 137/3/4 138/3/4 141/3/4
f 140/4/4 137/4/4 141/4/4
f 138/4/4 139/4/4 142/4/4
f 141/3/4 138/3/4 142/3/4
f 142/4/4 139/4/4 143/4/4
f 140/3/4 141/3/4 144/3/4
f 141/4/4 142/4/4 145/4/4
f 144/3/4 141/3/4 145/3/4
f 142/3/4 143/3/4 146/3/4
f 145/4/4 142/4/4 146/4/4
f 146/3/4 143/3/4 147/3/4
f 148/3/4 149/3/4 152/3/4
f 149/4/4 150/4/4 153/4/4
f 152/3/4 149/3/4 153/3/4
f 150/3/4 151/3/4 154/3/4
f 153/4/4 150/4/4 154/4/4
f 154/3/4 151/3/4 155/3/4
f 152/4/4 153/4/4 156/4/4
f 153/3/4 154/3/4 157/3/4
f 156/4/4 153/4/4 157/4/4
f 154/4/4 155/4/4 158/4/4
f 157/3/4 154/3/4 158/3/4
f 158/4/4 155/4/4 159/4/4
f 156/3/4 157/3/4 160/3/4
f 157/4/4 158/4/4 161/4/4
f 160/3/4 157/3/4 161/3/4
f 158/3/4 159/3/4 162/3/4
f 161/4/4 158/4/4 162/4/4
f 162/3/4 159/3/4 163/3/4
f 160/4/4 161/4/4 164/4/4
f 161/3/4 162/3/4 165/3/4
f 164/4/4 161/4/4 165/4/4
f 162/4/4 163/4/4 166/4/4
f 165/3/4 162/3/4 166/3/4
f 166/4/4 163/4/4 167/4/4
f 164/3/4 165/3/4 168/3/4
f 165/4/4 166/4/4 169/4/4
f 168/3/4 165/3/4 169/3/4
f 166/3/4 167/3/4 170/3/4
f 169/4/4 166/4/4 170/4/4
f 170/3/4 167/3/4 171/3/4
f 174/2/5 173/2/5 172/2/5
f 175/2/5 173/2/5 174/2/5
f 176/2/5 173/2/5 175/2/5
f 180/3/5 175/3/5 174/3/5
f 181/4/5 176/4/5 175/4/5
f 181/3/5 175/3/5 180/3/5
f 182/3/5 177/3/5 176/3/5
f 182/4/5 176/4/5 181/4/5
f 183/4/5 178/4/5 177/4/5
f 183/3/5 177/3/5 182/3/5
f 184/3/5 179/3/5 178/3/5
f 184/4/5 178/4/5 183/4/5
f 185/3/5 179/3/5 184/3/5
f 186/4/5 181/4/5 180/4/5
f 187/4/5 181/4/5 186/4/5
f 188/3/5 187/3/5 186/3/5
f 189/3/5 187/3/5 188/3/5
f 190/2/5 189/2/5 188/2/5
f 191/2/5 189/2/5 190/2/5
f 192/3/5 191/3/5 190/3/5
f 193/3/5 191/3/5 192/3/5
f 194/4/5 193/4/5 192/4/5
f 195/4/5 193/4/5 194/4/5
f 200/3/5 195/3/5 194/3/5
f 201/4/5 196/4/5 195/4/5
f 201/3/5 195/3/5 200/3/5
f 202/3/5 197/3/5 196/3/5
f 202/4/5 196/4/5 201/4/5
f 203/4/5 198/4/5 197/4/5
f 203/3/5 197/3/5 202/3/5
f 204/3/5 199/3/5 198/3/5
f 204/4/5 198/4/5 203/4/5
f 205/3/5 199/3/5 204/3/5
f 206/1/6 207/1/6 208/1/6
f 208/1/6 207/1/6 209/1/6
f 209/1/6 207/1/6 210/1/6
f 211/3/6 212/3/6 217/3/6
f 212/4/6 213/4/6 218/4/6
f 217/3/6 212/3/6 218/3/6
f 213/3/6 214/3/6 219/3/6
f 218/4/6 213/4/6 219/4/6
f 214/4/6 215/4/6 220/4/6
f 219/3/6 214/3/6 220/3/6
f 215/3/6 216/3/6 221/3/6
f 220/4/6 215/4/6 221/4/6
f 221/3/6 216/3/6 222/3/6
f 217/4/6 218/4/6 223/4/6
f 223/4/6 218/4/6 224/4/6
f 223/3/6 224/3/6 225/3/6
f 225/3/6 224/3/6 226/3/6
f 225/2/6 226/2/6 227/2/6
f 227/2/6 226/2/6 228/2/6
f 227/3/6 228/3/6 229/3/6
f 229/3/6 228/3/6 230/3/6
f 229/4/6 230/4/6 231/4/6
f 231/4/6 230/4/6 232/4/6
f 231/3/6 232/3/6 237/3/6
f 232/4/6 233/4/6 238/4/6
f 237/3/6 232/3/6 238/3/6
f 233/3/6 234/3/6 239/3/6
f 238/4/6 233/4/6 239/4/6
f 234/4/6 235/4/6 240/4/6
f 239/3/6 234/3/6 240/3/6
f 235/3/6 236/3/6 241/3/6
f 240/4/6 235/4/6 241/4/6
f 241/3/6 236/3/6 242/3/6
