# MagicaVoxel @ Ephtracy

# group
o 

# material
mtllib tree.mtl
usemtl palette

# normals
vn -1 0 0
vn 1 0 0
vn 0 0 1
vn 0 0 -1
vn 0 -1 0
vn 0 1 0

# texcoords
vt 0.181641 0.5
vt 0.189453 0.5
vt 0.615234 0.5
vt 0.642578 0.5
vt 0.646484 0.5
vt 0.744141 0.5
vt 0.767578 0.5
vt 0.791016 0.5

# verts
v -0.2 0.3 0.1
v -0.2 0.3 -0.2
v -0.2 0.4 0.1
v -0.2 0.4 0
v -0.2 0.4 -0.1
v -0.2 0.4 -0.2
v -0.2 0.5 0
v -0.2 0.5 -0.1
v -0.1 0.3 0.2
v -0.1 0.3 0.1
v -0.1 0.3 -0.2
v -0.1 0.3 -0.3
v -0.1 0.4 0.2
v -0.1 0.4 0.1
v -0.1 0.4 0
v -0.1 0.4 -0.1
v -0.1 0.4 -0.2
v -0.1 0.4 -0.3
v -0.1 0.5 0.1
v -0.1 0.5 0
v -0.1 0.5 -0.1
v -0.1 0.5 -0.2
v -0.1 0.6 0.1
v -0.1 0.6 0
v -0.1 0.6 -0.1
v -0.1 0.6 -0.2
v -0.1 0.7 0
v -0.1 0.7 -0.1
v 0 0 0
v 0 0 -0.1
v 0 0.2 0
v 0 0.2 -0.1
v 0 0.3 0
v 0 0.3 -0.1
v 0 0.4 0.2
v 0 0.4 0.1
v 0 0.4 -0.2
v 0 0.4 -0.3
v 0 0.5 0.2
v 0 0.5 0.1
v 0 0.5 -0.2
v 0 0.5 -0.3
v 0 0.6 0.1
v 0 0.6 0
v 0 0.6 -0.1
v 0 0.6 -0.2
v 0 0.7 0.1
v 0 0.7 0
v 0 0.7 -0.1
v 0 0.7 -0.2
v 0 0.8 0
v 0 0.8 -0.1
v 0.1 0 0
v 0.1 0 -0.1
v 0.1 0.2 0
v 0.1 0.2 -0.1
v 0.1 0.3 0
v 0.1 0.3 -0.1
v 0.1 0.4 0.2
v 0.1 0.4 0.1
v 0.1 0.4 -0.2
v 0.1 0.4 -0.3
v 0.1 0.5 0.2
v 0.1 0.5 0.1
v 0.1 0.5 -0.2
v 0.1 0.5 -0.3
v 0.1 0.6 0.1
v 0.1 0.6 0
v 0.1 0.6 -0.1
v 0.1 0.6 -0.2
v 0.1 0.7 0.1
v 0.1 0.7 0
v 0.1 0.7 -0.1
v 0.1 0.7 -0.2
v 0.1 0.8 0
v 0.1 0.8 -0.1
v 0.2 0.3 0.2
v 0.2 0.3 0.1
v 0.2 0.3 -0.2
v 0.2 0.3 -0.3
v 0.2 0.4 0.2
v 0.2 0.4 0.1
v 0.2 0.4 0
v 0.2 0.4 -0.1
v 0.2 0.4 -0.2
v 0.2 0.4 -0.3
v 0.2 0.5 0.1
v 0.2 0.5 0
v 0.2 0.5 -0.1
v 0.2 0.5 -0.2
v 0.2 0.6 0.1
v 0.2 0.6 0
v 0.2 0.6 -0.1
v 0.2 0.6 -0.2
v 0.2 0.7 0
v 0.2 0.7 -0.1
v 0.3 0.3 0.1
v 0.3 0.3 -0.2
v 0.3 0.4 0.1
v 0.3 0.4 0
v 0.3 0.4 -0.1
v 0.3 0.4 -0.2
v 0.3 0.5 0
v 0.3 0.5 -0.1
v -0.1 0.3 0.2
v -0.1 0.4 0.2
v 0 0.4 0.2
v 0 0.5 0.2
v 0.1 0.4 0.2
v 0.1 0.5 0.2
v 0.2 0.3 0.2
v 0.2 0.4 0.2
v -0.2 0.3 0.1
v -0.2 0.4 0.1
v -0.1 0.3 0.1
v -0.1 0.4 0.1
v -0.1 0.5 0.1
v -0.1 0.6 0.1
v 0 0.4 0.1
v 0 0.5 0.1
v 0 0.6 0.1
v 0 0.7 0.1
v 0.1 0.4 0.1
v 0.1 0.5 0.1
v 0.1 0.6 0.1
v 0.1 0.7 0.1
v 0.2 0.3 0.1
v 0.2 0.4 0.1
v 0.2 0.5 0.1
v 0.2 0.6 0.1
v 0.3 0.3 0.1
v 0.3 0.4 0.1
v -0.2 0.4 0
v -0.2 0.5 0
v -0.1 0.4 0
v -0.1 0.5 0
v -0.1 0.6 0
v -0.1 0.7 0
v 0 0 0
v 0 0.2 0
v 0 0.3 0
v 0 0.6 0
v 0 0.7 0
v 0 0.8 0
v 0.1 0 0
v 0.1 0.2 0
v 0.1 0.3 0
v 0.1 0.6 0
v 0.1 0.7 0
v 0.1 0.8 0
v 0.2 0.4 0
v 0.2 0.5 0
v 0.2 0.6 0
v 0.2 0.7 0
v 0.3 0.4 0
v 0.3 0.5 0
v -0.2 0.4 -0.1
v -0.2 0.5 -0.1
v -0.1 0.4 -0.1
v -0.1 0.5 -0.1
v -0.1 0.6 -0.1
v -0.1 0.7 -0.1
v 0 0 -0.1
v 0 0.2 -0.1
v 0 0.3 -0.1
v 0 0.6 -0.1
v 0 0.7 -0.1
v 0 0.8 -0.1
v 0.1 0 -0.1
v 0.1 0.2 -0.1
v 0.1 0.3 -0.1
v 0.1 0.6 -0.1
v 0.1 0.7 -0.1
v 0.1 0.8 -0.1
v 0.2 0.4 -0.1
v 0.2 0.5 -0.1
v 0.2 0.6 -0.1
v 0.2 0.7 -0.1
v 0.3 0.4 -0.1
v 0.3 0.5 -0.1
v -0.2 0.3 -0.2
v -0.2 0.4 -0.2
v -0.1 0.3 -0.2
v -0.1 0.4 -0.2
v -0.1 0.5 -0.2
v -0.1 0.6 -0.2
v 0 0.4 -0.2
v 0 0.5 -0.2
v 0 0.6 -0.2
v 0 0.7 -0.2
v 0.1 0.4 -0.2
v 0.1 0.5 -0.2
v 0.1 0.6 -0.2
v 0.1 0.7 -0.2
v 0.2 0.3 -0.2
v 0.2 0.4 -0.2
v 0.2 0.5 -0.2
v 0.2 0.6 -0.2
v 0.3 0.3 -0.2
v 0.3 0.4 -0.2
v -0.1 0.3 -0.3
v -0.1 0.4 -0.3
v 0 0.4 -0.3
v 0 0.5 -0.3
v 0.1 0.4 -0.3
v 0.1 0.5 -0.3
v 0.2 0.3 -0.3
v 0.2 0.4 -0.3
v 0 0 0
v 0.1 0 0
v 0 0 -0.1
v 0.1 0 -0.1
v -0.1 0.3 0.2
v 0.2 0.3 0.2
v -0.2 0.3 0.1
v -0.1 0.3 0.1
v 0.2 0.3 0.1
v 0.3 0.3 0.1
v 0 0.3 0
v 0.1 0.3 0
v 0 0.3 -0.1
v 0.1 0.3 -0.1
v -0.2 0.3 -0.2
v -0.1 0.3 -0.2
v 0.2 0.3 -0.2
v 0.3 0.3 -0.2
v -0.1 0.3 -0.3
v 0.2 0.3 -0.3
v -0.1 0.4 0.2
v 0 0.4 0.2
v 0.1 0.4 0.2
v 0.2 0.4 0.2
v -0.2 0.4 0.1
v -0.1 0.4 0.1
v 0 0.4 0.1
v 0.1 0.4 0.1
v 0.2 0.4 0.1
v 0.3 0.4 0.1
v -0.2 0.4 0
v -0.1 0.4 0
v 0.2 0.4 0
v 0.3 0.4 0
v -0.2 0.4 -0.1
v -0.1 0.4 -0.1
v 0.2 0.4 -0.1
v 0.3 0.4 -0.1
v -0.2 0.4 -0.2
v -0.1 0.4 -0.2
v 0 0.4 -0.2
v 0.1 0.4 -0.2
v 0.2 0.4 -0.2
v 0.3 0.4 -0.2
v -0.1 0.4 -0.3
v 0 0.4 -0.3
v 0.1 0.4 -0.3
v 0.2 0.4 -0.3
v 0 0.5 0.2
v 0.1 0.5 0.2
v 0 0.5 0.1
v 0.1 0.5 0.1
v -0.2 0.5 0
v -0.1 0.5 0
v 0.2 0.5 0
v 0.3 0.5 0
v -0.2 0.5 -0.1
v -0.1 0.5 -0.1
v 0.2 0.5 -0.1
v 0.3 0.5 -0.1
v 0 0.5 -0.2
v 0.1 0.5 -0.2
v 0 0.5 -0.3
v 0.1 0.5 -0.3
v -0.1 0.6 0.1
v 0 0.6 0.1
v 0.1 0.6 0.1
v 0.2 0.6 0.1
v -0.1 0.6 0
v 0 0.6 0
v 0.1 0.6 0
v 0.2 0.6 0
v -0.1 0.6 -0.1
v 0 0.6 -0.1
v 0.1 0.6 -0.1
v 0.2 0.6 -0.1
v -0.1 0.6 -0.2
v 0 0.6 -0.2
v 0.1 0.6 -0.2
v 0.2 0.6 -0.2
v 0 0.7 0.1
v 0.1 0.7 0.1
v -0.1 0.7 0
v 0 0.7 0
v 0.1 0.7 0
v 0.2 0.7 0
v -0.1 0.7 -0.1
v 0 0.7 -0.1
v 0.1 0.7 -0.1
v 0.2 0.7 -0.1
v 0 0.7 -0.2
v 0.1 0.7 -0.2
v 0 0.8 0
v 0.1 0.8 0
v 0 0.8 -0.1
v 0.1 0.8 -0.1

# faces
f 3/7/1 2/7/1 1/7/1
f 4/7/1 2/7/1 3/7/1
f 5/7/1 2/7/1 4/7/1
f 6/7/1 2/7/1 5/7/1
f 7/8/1 5/8/1 4/8/1
f 8/8/1 5/8/1 7/8/1
f 13/7/1 10/7/1 9/7/1
f 14/7/1 10/7/1 13/7/1
f 17/7/1 12/7/1 11/7/1
f 18/7/1 12/7/1 17/7/1
f 19/8/1 15/8/1 14/8/1
f 20/8/1 15/8/1 19/8/1
f 21/8/1 17/8/1 16/8/1
f 22/8/1 17/8/1 21/8/1
f 23/5/1 20/5/1 19/5/1
f 23/5/1 21/5/1 20/5/1
f 23/5/1 22/5/1 21/5/1
f 24/5/1 22/5/1 23/5/1
f 25/5/1 22/5/1 24/5/1
f 26/5/1 22/5/1 25/5/1
f 27/4/1 25/4/1 24/4/1
f 28/4/1 25/4/1 27/4/1
f 31/2/1 30/2/1 29/2/1
f 32/2/1 30/2/1 31/2/1
f 33/1/1 32/1/1 31/1/1
f 34/1/1 32/1/1 33/1/1
f 39/8/1 36/8/1 35/8/1
f 40/8/1 36/8/1 39/8/1
f 41/8/1 38/8/1 37/8/1
f 42/8/1 38/8/1 41/8/1
f 47/4/1 44/4/1 43/4/1
f 48/4/1 44/4/1 47/4/1
f 49/4/1 46/4/1 45/4/1
f 50/4/1 46/4/1 49/4/1
f 51/3/1 49/3/1 48/3/1
f 52/3/1 49/3/1 51/3/1
f 53/2/2 54/2/2 55/2/2
f 55/2/2 54/2/2 56/2/2
f 55/1/2 56/1/2 57/1/2
f 57/1/2 56/1/2 58/1/2
f 59/8/2 60/8/2 63/8/2
f 63/8/2 60/8/2 64/8/2
f 61/8/2 62/8/2 65/8/2
f 65/8/2 62/8/2 66/8/2
f 67/4/2 68/4/2 71/4/2
f 71/4/2 68/4/2 72/4/2
f 69/4/2 70/4/2 73/4/2
f 73/4/2 70/4/2 74/4/2
f 72/3/2 73/3/2 75/3/2
f 75/3/2 73/3/2 76/3/2
f 77/7/2 78/7/2 81/7/2
f 81/7/2 78/7/2 82/7/2
f 79/7/2 80/7/2 85/7/2
f 85/7/2 80/7/2 86/7/2
f 82/8/2 83/8/2 87/8/2
f 87/8/2 83/8/2 88/8/2
f 84/8/2 85/8/2 89/8/2
f 89/8/2 85/8/2 90/8/2
f 87/5/2 88/5/2 91/5/2
f 88/5/2 89/5/2 91/5/2
f 89/5/2 90/5/2 91/5/2
f 91/5/2 90/5/2 92/5/2
f 92/5/2 90/5/2 93/5/2
f 93/5/2 90/5/2 94/5/2
f 92/4/2 93/4/2 95/4/2
f 95/4/2 93/4/2 96/4/2
f 97/7/2 98/7/2 99/7/2
f 99/7/2 98/7/2 100/7/2
f 100/7/2 98/7/2 101/7/2
f 101/7/2 98/7/2 102/7/2
f 100/8/2 101/8/2 103/8/2
f 103/8/2 101/8/2 104/8/2
f 107/7/3 106/7/3 105/7/3
f 109/7/3 107/7/3 105/7/3
f 109/8/3 108/8/3 107/8/3
f 110/8/3 108/8/3 109/8/3
f 111/7/3 109/7/3 105/7/3
f 112/7/3 109/7/3 111/7/3
f 115/7/3 114/7/3 113/7/3
f 116/7/3 114/7/3 115/7/3
f 119/8/3 117/8/3 116/8/3
f 120/5/3 118/5/3 117/5/3
f 120/8/3 117/8/3 119/8/3
f 121/5/3 118/5/3 120/5/3
f 124/5/3 121/5/3 120/5/3
f 125/4/3 122/4/3 121/4/3
f 125/5/3 121/5/3 124/5/3
f 126/4/3 122/4/3 125/4/3
f 128/8/3 124/8/3 123/8/3
f 129/5/3 125/5/3 124/5/3
f 129/8/3 124/8/3 128/8/3
f 130/5/3 125/5/3 129/5/3
f 131/7/3 128/7/3 127/7/3
f 132/7/3 128/7/3 131/7/3
f 135/8/3 134/8/3 133/8/3
f 136/8/3 134/8/3 135/8/3
f 142/4/3 138/4/3 137/4/3
f 143/4/3 138/4/3 142/4/3
f 145/2/3 140/2/3 139/2/3
f 146/1/3 141/1/3 140/1/3
f 146/2/3 140/2/3 145/2/3
f 147/1/3 141/1/3 146/1/3
f 149/3/3 144/3/3 143/3/3
f 150/3/3 144/3/3 149/3/3
f 153/4/3 149/4/3 148/4/3
f 154/4/3 149/4/3 153/4/3
f 155/8/3 152/8/3 151/8/3
f 156/8/3 152/8/3 155/8/3
f 157/8/4 158/8/4 159/8/4
f 159/8/4 158/8/4 160/8/4
f 161/4/4 162/4/4 166/4/4
f 166/4/4 162/4/4 167/4/4
f 163/2/4 164/2/4 169/2/4
f 164/1/4 165/1/4 170/1/4
f 169/2/4 164/2/4 170/2/4
f 170/1/4 165/1/4 171/1/4
f 167/3/4 168/3/4 173/3/4
f 173/3/4 168/3/4 174/3/4
f 172/4/4 173/4/4 177/4/4
f 177/4/4 173/4/4 178/4/4
f 175/8/4 176/8/4 179/8/4
f 179/8/4 176/8/4 180/8/4
f 181/7/4 182/7/4 183/7/4
f 183/7/4 182/7/4 184/7/4
f 184/8/4 185/8/4 187/8/4
f 185/5/4 186/5/4 188/5/4
f 187/8/4 185/8/4 188/8/4
f 188/5/4 186/5/4 189/5/4
f 188/5/4 189/5/4 192/5/4
f 189/4/4 190/4/4 193/4/4
f 192/5/4 189/5/4 193/5/4
f 193/4/4 190/4/4 194/4/4
f 191/8/4 192/8/4 196/8/4
f 192/5/4 193/5/4 197/5/4
f 196/8/4 192/8/4 197/8/4
f 197/5/4 193/5/4 198/5/4
f 195/7/4 196/7/4 199/7/4
f 199/7/4 196/7/4 200/7/4
f 201/7/4 202/7/4 203/7/4
f 201/7/4 203/7/4 205/7/4
f 203/8/4 204/8/4 205/8/4
f 205/8/4 204/8/4 206/8/4
f 201/7/4 205/7/4 207/7/4
f 207/7/4 205/7/4 208/7/4
f 211/2/5 210/2/5 209/2/5
f 212/2/5 210/2/5 211/2/5
f 216/7/5 214/7/5 213/7/5
f 217/7/5 214/7/5 216/7/5
f 219/7/5 216/7/5 215/7/5
f 219/7/5 218/7/5 217/7/5
f 219/7/5 217/7/5 216/7/5
f 220/7/5 218/7/5 219/7/5
f 221/7/5 219/7/5 215/7/5
f 222/7/5 218/7/5 220/7/5
f 223/7/5 221/7/5 215/7/5
f 223/7/5 222/7/5 221/7/5
f 224/7/5 222/7/5 223/7/5
f 225/7/5 218/7/5 222/7/5
f 225/7/5 222/7/5 224/7/5
f 226/7/5 218/7/5 225/7/5
f 227/7/5 225/7/5 224/7/5
f 228/7/5 225/7/5 227/7/5
f 229/7/6 230/7/6 234/7/6
f 234/7/6 230/7/6 235/7/6
f 231/7/6 232/7/6 236/7/6
f 236/7/6 232/7/6 237/7/6
f 233/7/6 234/7/6 239/7/6
f 239/7/6 234/7/6 240/7/6
f 237/7/6 238/7/6 241/7/6
f 241/7/6 238/7/6 242/7/6
f 243/7/6 244/7/6 247/7/6
f 247/7/6 244/7/6 248/7/6
f 245/7/6 246/7/6 251/7/6
f 251/7/6 246/7/6 252/7/6
f 248/7/6 249/7/6 253/7/6
f 253/7/6 249/7/6 254/7/6
f 250/7/6 251/7/6 255/7/6
f 255/7/6 251/7/6 256/7/6
f 257/8/6 258/8/6 259/8/6
f 259/8/6 258/8/6 260/8/6
f 261/8/6 262/8/6 265/8/6
f 265/8/6 262/8/6 266/8/6
f 263/8/6 264/8/6 267/8/6
f 267/8/6 264/8/6 268/8/6
f 269/8/6 270/8/6 271/8/6
f 271/8/6 270/8/6 272/8/6
f 273/5/6 274/5/6 277/5/6
f 277/5/6 274/5/6 278/5/6
f 275/5/6 276/5/6 279/5/6
f 279/5/6 276/5/6 280/5/6
f 281/5/6 282/5/6 285/5/6
f 285/5/6 282/5/6 286/5/6
f 283/5/6 284/5/6 287/5/6
f 287/5/6 284/5/6 288/5/6
f 289/4/6 290/4/6 292/4/6
f 292/4/6 290/4/6 293/4/6
f 291/4/6 292/4/6 295/4/6
f 295/4/6 292/4/6 296/4/6
f 293/4/6 294/4/6 297/4/6
f 297/4/6 294/4/6 298/4/6
f 296/4/6 297/4/6 299/4/6
f 299/4/6 297/4/6 300/4/6
f 301/3/6 302/3/6 303/3/6
f 303/3/6 302/3/6 304/3/6
